<mxfile host="app.diagrams.net" modified="2021-03-15T22:23:48.727Z" agent="5.0 (Windows NT 10.0; Win64; x64) AppleWebKit/537.36 (KHTML, like Gecko) Chrome/89.0.4389.82 Safari/537.36" etag="lS8O0TuLN9a-5_QZjHtl" version="14.4.8" type="github" pages="2">
  <diagram id="DDlnrM6xIhdPocqMTLP7" name="Page-1">
    <mxGraphModel dx="865" dy="483" grid="1" gridSize="10" guides="1" tooltips="1" connect="1" arrows="1" fold="1" page="1" pageScale="1" pageWidth="827" pageHeight="1169" math="0" shadow="0">
      <root>
        <mxCell id="0" />
        <mxCell id="1" parent="0" />
        <mxCell id="3lgUj6ZpfPvZA7XoHaoX-3" value="" style="edgeStyle=orthogonalEdgeStyle;rounded=0;orthogonalLoop=1;jettySize=auto;html=1;" edge="1" parent="1" source="3lgUj6ZpfPvZA7XoHaoX-1" target="3lgUj6ZpfPvZA7XoHaoX-2">
          <mxGeometry relative="1" as="geometry" />
        </mxCell>
        <mxCell id="3lgUj6ZpfPvZA7XoHaoX-1" value="START" style="ellipse;whiteSpace=wrap;html=1;" vertex="1" parent="1">
          <mxGeometry x="40" y="50" width="120" height="80" as="geometry" />
        </mxCell>
        <mxCell id="3lgUj6ZpfPvZA7XoHaoX-5" value="" style="edgeStyle=orthogonalEdgeStyle;rounded=0;orthogonalLoop=1;jettySize=auto;html=1;" edge="1" parent="1" source="3lgUj6ZpfPvZA7XoHaoX-2" target="3lgUj6ZpfPvZA7XoHaoX-4">
          <mxGeometry relative="1" as="geometry" />
        </mxCell>
        <mxCell id="3lgUj6ZpfPvZA7XoHaoX-2" value="VARIABLES&lt;br&gt;INIT" style="whiteSpace=wrap;html=1;" vertex="1" parent="1">
          <mxGeometry x="40" y="170" width="120" height="60" as="geometry" />
        </mxCell>
        <mxCell id="3lgUj6ZpfPvZA7XoHaoX-7" style="edgeStyle=orthogonalEdgeStyle;rounded=0;orthogonalLoop=1;jettySize=auto;html=1;exitX=0.5;exitY=1;exitDx=0;exitDy=0;entryX=0.5;entryY=0;entryDx=0;entryDy=0;" edge="1" parent="1" source="3lgUj6ZpfPvZA7XoHaoX-4" target="3lgUj6ZpfPvZA7XoHaoX-6">
          <mxGeometry relative="1" as="geometry" />
        </mxCell>
        <mxCell id="3lgUj6ZpfPvZA7XoHaoX-4" value="Counter != 4" style="rhombus;whiteSpace=wrap;html=1;" vertex="1" parent="1">
          <mxGeometry x="55" y="270" width="90" height="80" as="geometry" />
        </mxCell>
        <mxCell id="3lgUj6ZpfPvZA7XoHaoX-21" style="edgeStyle=orthogonalEdgeStyle;rounded=0;orthogonalLoop=1;jettySize=auto;html=1;exitX=0.5;exitY=1;exitDx=0;exitDy=0;entryX=0.5;entryY=0;entryDx=0;entryDy=0;" edge="1" parent="1" source="3lgUj6ZpfPvZA7XoHaoX-6" target="3lgUj6ZpfPvZA7XoHaoX-8">
          <mxGeometry relative="1" as="geometry" />
        </mxCell>
        <mxCell id="3lgUj6ZpfPvZA7XoHaoX-6" value="TRUE" style="text;html=1;strokeColor=none;fillColor=none;align=center;verticalAlign=middle;whiteSpace=wrap;rounded=0;" vertex="1" parent="1">
          <mxGeometry x="80" y="370" width="40" height="20" as="geometry" />
        </mxCell>
        <mxCell id="3lgUj6ZpfPvZA7XoHaoX-10" value="" style="edgeStyle=orthogonalEdgeStyle;rounded=0;orthogonalLoop=1;jettySize=auto;html=1;" edge="1" parent="1" source="3lgUj6ZpfPvZA7XoHaoX-8" target="3lgUj6ZpfPvZA7XoHaoX-9">
          <mxGeometry relative="1" as="geometry" />
        </mxCell>
        <mxCell id="3lgUj6ZpfPvZA7XoHaoX-8" value="Print&amp;nbsp;&lt;span style=&quot;background-color: rgb(255 , 255 , 255) ; font-family: &amp;#34;courier new&amp;#34; , &amp;#34;courier&amp;#34; , monospace , &amp;#34;arial&amp;#34; , sans-serif ; font-size: 14px ; text-align: left&quot;&gt;Prompt&lt;/span&gt;" style="shape=process;whiteSpace=wrap;html=1;backgroundOutline=1;" vertex="1" parent="1">
          <mxGeometry x="40" y="410" width="120" height="60" as="geometry" />
        </mxCell>
        <mxCell id="3lgUj6ZpfPvZA7XoHaoX-12" style="edgeStyle=orthogonalEdgeStyle;rounded=0;orthogonalLoop=1;jettySize=auto;html=1;exitX=1;exitY=0.5;exitDx=0;exitDy=0;entryX=0;entryY=0.5;entryDx=0;entryDy=0;" edge="1" parent="1" source="3lgUj6ZpfPvZA7XoHaoX-9" target="3lgUj6ZpfPvZA7XoHaoX-11">
          <mxGeometry relative="1" as="geometry" />
        </mxCell>
        <mxCell id="3lgUj6ZpfPvZA7XoHaoX-30" style="edgeStyle=orthogonalEdgeStyle;rounded=0;orthogonalLoop=1;jettySize=auto;html=1;exitX=0.5;exitY=1;exitDx=0;exitDy=0;entryX=0.5;entryY=0;entryDx=0;entryDy=0;" edge="1" parent="1" source="3lgUj6ZpfPvZA7XoHaoX-9" target="3lgUj6ZpfPvZA7XoHaoX-29">
          <mxGeometry relative="1" as="geometry" />
        </mxCell>
        <mxCell id="3lgUj6ZpfPvZA7XoHaoX-9" value="Case 1" style="rhombus;whiteSpace=wrap;html=1;" vertex="1" parent="1">
          <mxGeometry x="60" y="500" width="80" height="80" as="geometry" />
        </mxCell>
        <mxCell id="3lgUj6ZpfPvZA7XoHaoX-14" value="" style="edgeStyle=orthogonalEdgeStyle;rounded=0;orthogonalLoop=1;jettySize=auto;html=1;" edge="1" parent="1" source="3lgUj6ZpfPvZA7XoHaoX-11" target="3lgUj6ZpfPvZA7XoHaoX-13">
          <mxGeometry relative="1" as="geometry" />
        </mxCell>
        <mxCell id="3lgUj6ZpfPvZA7XoHaoX-11" value="True" style="text;html=1;strokeColor=none;fillColor=none;align=center;verticalAlign=middle;whiteSpace=wrap;rounded=0;" vertex="1" parent="1">
          <mxGeometry x="180" y="530" width="40" height="20" as="geometry" />
        </mxCell>
        <mxCell id="3lgUj6ZpfPvZA7XoHaoX-16" value="" style="edgeStyle=orthogonalEdgeStyle;rounded=0;orthogonalLoop=1;jettySize=auto;html=1;" edge="1" parent="1" source="3lgUj6ZpfPvZA7XoHaoX-13" target="3lgUj6ZpfPvZA7XoHaoX-15">
          <mxGeometry relative="1" as="geometry" />
        </mxCell>
        <mxCell id="3lgUj6ZpfPvZA7XoHaoX-13" value="Quiz Avg" style="whiteSpace=wrap;html=1;" vertex="1" parent="1">
          <mxGeometry x="260" y="515" width="90" height="50" as="geometry" />
        </mxCell>
        <mxCell id="3lgUj6ZpfPvZA7XoHaoX-73" style="edgeStyle=orthogonalEdgeStyle;rounded=0;orthogonalLoop=1;jettySize=auto;html=1;exitX=0.5;exitY=1;exitDx=0;exitDy=0;entryX=0.5;entryY=0;entryDx=0;entryDy=0;" edge="1" parent="1" source="3lgUj6ZpfPvZA7XoHaoX-15" target="3lgUj6ZpfPvZA7XoHaoX-69">
          <mxGeometry relative="1" as="geometry" />
        </mxCell>
        <mxCell id="3lgUj6ZpfPvZA7XoHaoX-15" value="Average" style="shape=process;whiteSpace=wrap;html=1;backgroundOutline=1;" vertex="1" parent="1">
          <mxGeometry x="380" y="520" width="100" height="40" as="geometry" />
        </mxCell>
        <mxCell id="3lgUj6ZpfPvZA7XoHaoX-56" style="edgeStyle=orthogonalEdgeStyle;rounded=0;orthogonalLoop=1;jettySize=auto;html=1;exitX=0.5;exitY=1;exitDx=0;exitDy=0;entryX=0;entryY=0.5;entryDx=0;entryDy=0;" edge="1" parent="1" source="3lgUj6ZpfPvZA7XoHaoX-17" target="3lgUj6ZpfPvZA7XoHaoX-4">
          <mxGeometry relative="1" as="geometry">
            <Array as="points">
              <mxPoint x="505" y="1090" />
              <mxPoint x="20" y="1090" />
              <mxPoint x="20" y="310" />
            </Array>
          </mxGeometry>
        </mxCell>
        <mxCell id="3lgUj6ZpfPvZA7XoHaoX-17" value="" style="ellipse;html=1;shape=endState;fillColor=#000000;strokeColor=#ff0000;" vertex="1" parent="1">
          <mxGeometry x="490" y="711" width="30" height="30" as="geometry" />
        </mxCell>
        <mxCell id="3lgUj6ZpfPvZA7XoHaoX-60" value="" style="edgeStyle=orthogonalEdgeStyle;rounded=0;orthogonalLoop=1;jettySize=auto;html=1;" edge="1" parent="1" source="3lgUj6ZpfPvZA7XoHaoX-19" target="3lgUj6ZpfPvZA7XoHaoX-59">
          <mxGeometry relative="1" as="geometry" />
        </mxCell>
        <mxCell id="3lgUj6ZpfPvZA7XoHaoX-19" value="FALSE" style="text;html=1;strokeColor=none;fillColor=none;align=center;verticalAlign=middle;whiteSpace=wrap;rounded=0;" vertex="1" parent="1">
          <mxGeometry x="180" y="300" width="40" height="20" as="geometry" />
        </mxCell>
        <mxCell id="3lgUj6ZpfPvZA7XoHaoX-20" value="" style="edgeStyle=orthogonalEdgeStyle;rounded=0;orthogonalLoop=1;jettySize=auto;html=1;" edge="1" parent="1" source="3lgUj6ZpfPvZA7XoHaoX-4" target="3lgUj6ZpfPvZA7XoHaoX-19">
          <mxGeometry relative="1" as="geometry" />
        </mxCell>
        <mxCell id="3lgUj6ZpfPvZA7XoHaoX-22" style="edgeStyle=orthogonalEdgeStyle;rounded=0;orthogonalLoop=1;jettySize=auto;html=1;exitX=1;exitY=0.5;exitDx=0;exitDy=0;entryX=0;entryY=0.5;entryDx=0;entryDy=0;" edge="1" parent="1" source="3lgUj6ZpfPvZA7XoHaoX-23" target="3lgUj6ZpfPvZA7XoHaoX-25">
          <mxGeometry relative="1" as="geometry" />
        </mxCell>
        <mxCell id="3lgUj6ZpfPvZA7XoHaoX-42" style="edgeStyle=orthogonalEdgeStyle;rounded=0;orthogonalLoop=1;jettySize=auto;html=1;exitX=0.5;exitY=1;exitDx=0;exitDy=0;" edge="1" parent="1" source="3lgUj6ZpfPvZA7XoHaoX-23" target="3lgUj6ZpfPvZA7XoHaoX-41">
          <mxGeometry relative="1" as="geometry" />
        </mxCell>
        <mxCell id="3lgUj6ZpfPvZA7XoHaoX-23" value="Case 2" style="rhombus;whiteSpace=wrap;html=1;" vertex="1" parent="1">
          <mxGeometry x="60" y="625" width="80" height="80" as="geometry" />
        </mxCell>
        <mxCell id="3lgUj6ZpfPvZA7XoHaoX-24" value="" style="edgeStyle=orthogonalEdgeStyle;rounded=0;orthogonalLoop=1;jettySize=auto;html=1;" edge="1" parent="1" source="3lgUj6ZpfPvZA7XoHaoX-25" target="3lgUj6ZpfPvZA7XoHaoX-27">
          <mxGeometry relative="1" as="geometry" />
        </mxCell>
        <mxCell id="3lgUj6ZpfPvZA7XoHaoX-25" value="True" style="text;html=1;strokeColor=none;fillColor=none;align=center;verticalAlign=middle;whiteSpace=wrap;rounded=0;" vertex="1" parent="1">
          <mxGeometry x="180" y="655" width="40" height="20" as="geometry" />
        </mxCell>
        <mxCell id="3lgUj6ZpfPvZA7XoHaoX-26" value="" style="edgeStyle=orthogonalEdgeStyle;rounded=0;orthogonalLoop=1;jettySize=auto;html=1;" edge="1" parent="1" source="3lgUj6ZpfPvZA7XoHaoX-27" target="3lgUj6ZpfPvZA7XoHaoX-28">
          <mxGeometry relative="1" as="geometry" />
        </mxCell>
        <mxCell id="3lgUj6ZpfPvZA7XoHaoX-27" value="Assign Avg" style="whiteSpace=wrap;html=1;" vertex="1" parent="1">
          <mxGeometry x="260" y="640" width="90" height="50" as="geometry" />
        </mxCell>
        <mxCell id="3lgUj6ZpfPvZA7XoHaoX-74" style="edgeStyle=orthogonalEdgeStyle;rounded=0;orthogonalLoop=1;jettySize=auto;html=1;exitX=0.5;exitY=1;exitDx=0;exitDy=0;entryX=0.5;entryY=0;entryDx=0;entryDy=0;" edge="1" parent="1" source="3lgUj6ZpfPvZA7XoHaoX-28" target="3lgUj6ZpfPvZA7XoHaoX-70">
          <mxGeometry relative="1" as="geometry" />
        </mxCell>
        <mxCell id="3lgUj6ZpfPvZA7XoHaoX-28" value="Average" style="shape=process;whiteSpace=wrap;html=1;backgroundOutline=1;" vertex="1" parent="1">
          <mxGeometry x="380" y="645" width="100" height="40" as="geometry" />
        </mxCell>
        <mxCell id="3lgUj6ZpfPvZA7XoHaoX-31" style="edgeStyle=orthogonalEdgeStyle;rounded=0;orthogonalLoop=1;jettySize=auto;html=1;exitX=0.5;exitY=1;exitDx=0;exitDy=0;entryX=0.5;entryY=0;entryDx=0;entryDy=0;" edge="1" parent="1" source="3lgUj6ZpfPvZA7XoHaoX-29" target="3lgUj6ZpfPvZA7XoHaoX-23">
          <mxGeometry relative="1" as="geometry" />
        </mxCell>
        <mxCell id="3lgUj6ZpfPvZA7XoHaoX-29" value="False" style="text;html=1;strokeColor=none;fillColor=none;align=center;verticalAlign=middle;whiteSpace=wrap;rounded=0;" vertex="1" parent="1">
          <mxGeometry x="80" y="590" width="40" height="20" as="geometry" />
        </mxCell>
        <mxCell id="3lgUj6ZpfPvZA7XoHaoX-34" style="edgeStyle=orthogonalEdgeStyle;rounded=0;orthogonalLoop=1;jettySize=auto;html=1;exitX=1;exitY=0.5;exitDx=0;exitDy=0;entryX=0;entryY=0.5;entryDx=0;entryDy=0;" edge="1" parent="1" source="3lgUj6ZpfPvZA7XoHaoX-35" target="3lgUj6ZpfPvZA7XoHaoX-37">
          <mxGeometry relative="1" as="geometry" />
        </mxCell>
        <mxCell id="3lgUj6ZpfPvZA7XoHaoX-55" style="edgeStyle=orthogonalEdgeStyle;rounded=0;orthogonalLoop=1;jettySize=auto;html=1;exitX=0.5;exitY=1;exitDx=0;exitDy=0;entryX=0.5;entryY=0;entryDx=0;entryDy=0;" edge="1" parent="1" source="3lgUj6ZpfPvZA7XoHaoX-35" target="3lgUj6ZpfPvZA7XoHaoX-52">
          <mxGeometry relative="1" as="geometry" />
        </mxCell>
        <mxCell id="3lgUj6ZpfPvZA7XoHaoX-35" value="Case 3" style="rhombus;whiteSpace=wrap;html=1;" vertex="1" parent="1">
          <mxGeometry x="60" y="745" width="80" height="80" as="geometry" />
        </mxCell>
        <mxCell id="3lgUj6ZpfPvZA7XoHaoX-36" value="" style="edgeStyle=orthogonalEdgeStyle;rounded=0;orthogonalLoop=1;jettySize=auto;html=1;" edge="1" parent="1" source="3lgUj6ZpfPvZA7XoHaoX-37" target="3lgUj6ZpfPvZA7XoHaoX-39">
          <mxGeometry relative="1" as="geometry" />
        </mxCell>
        <mxCell id="3lgUj6ZpfPvZA7XoHaoX-37" value="True" style="text;html=1;strokeColor=none;fillColor=none;align=center;verticalAlign=middle;whiteSpace=wrap;rounded=0;" vertex="1" parent="1">
          <mxGeometry x="180" y="775" width="40" height="20" as="geometry" />
        </mxCell>
        <mxCell id="3lgUj6ZpfPvZA7XoHaoX-38" value="" style="edgeStyle=orthogonalEdgeStyle;rounded=0;orthogonalLoop=1;jettySize=auto;html=1;" edge="1" parent="1" source="3lgUj6ZpfPvZA7XoHaoX-39" target="3lgUj6ZpfPvZA7XoHaoX-40">
          <mxGeometry relative="1" as="geometry" />
        </mxCell>
        <mxCell id="3lgUj6ZpfPvZA7XoHaoX-39" value="Exam Avg" style="whiteSpace=wrap;html=1;" vertex="1" parent="1">
          <mxGeometry x="260" y="760" width="90" height="50" as="geometry" />
        </mxCell>
        <mxCell id="3lgUj6ZpfPvZA7XoHaoX-75" style="edgeStyle=orthogonalEdgeStyle;rounded=0;orthogonalLoop=1;jettySize=auto;html=1;exitX=0.5;exitY=1;exitDx=0;exitDy=0;entryX=0.5;entryY=0;entryDx=0;entryDy=0;" edge="1" parent="1" source="3lgUj6ZpfPvZA7XoHaoX-40" target="3lgUj6ZpfPvZA7XoHaoX-71">
          <mxGeometry relative="1" as="geometry" />
        </mxCell>
        <mxCell id="3lgUj6ZpfPvZA7XoHaoX-40" value="Average" style="shape=process;whiteSpace=wrap;html=1;backgroundOutline=1;" vertex="1" parent="1">
          <mxGeometry x="380" y="765" width="100" height="40" as="geometry" />
        </mxCell>
        <mxCell id="3lgUj6ZpfPvZA7XoHaoX-43" style="edgeStyle=orthogonalEdgeStyle;rounded=0;orthogonalLoop=1;jettySize=auto;html=1;exitX=0.5;exitY=1;exitDx=0;exitDy=0;entryX=0.5;entryY=0;entryDx=0;entryDy=0;" edge="1" parent="1" source="3lgUj6ZpfPvZA7XoHaoX-41" target="3lgUj6ZpfPvZA7XoHaoX-35">
          <mxGeometry relative="1" as="geometry" />
        </mxCell>
        <mxCell id="3lgUj6ZpfPvZA7XoHaoX-41" value="False" style="text;html=1;strokeColor=none;fillColor=none;align=center;verticalAlign=middle;whiteSpace=wrap;rounded=0;" vertex="1" parent="1">
          <mxGeometry x="80" y="716" width="40" height="20" as="geometry" />
        </mxCell>
        <mxCell id="3lgUj6ZpfPvZA7XoHaoX-44" style="edgeStyle=orthogonalEdgeStyle;rounded=0;orthogonalLoop=1;jettySize=auto;html=1;exitX=1;exitY=0.5;exitDx=0;exitDy=0;entryX=0;entryY=0.5;entryDx=0;entryDy=0;" edge="1" parent="1" source="3lgUj6ZpfPvZA7XoHaoX-45" target="3lgUj6ZpfPvZA7XoHaoX-47">
          <mxGeometry relative="1" as="geometry" />
        </mxCell>
        <mxCell id="3lgUj6ZpfPvZA7XoHaoX-58" value="" style="edgeStyle=orthogonalEdgeStyle;rounded=0;orthogonalLoop=1;jettySize=auto;html=1;" edge="1" parent="1" source="3lgUj6ZpfPvZA7XoHaoX-45" target="3lgUj6ZpfPvZA7XoHaoX-57">
          <mxGeometry relative="1" as="geometry" />
        </mxCell>
        <mxCell id="3lgUj6ZpfPvZA7XoHaoX-45" value="Case 4" style="rhombus;whiteSpace=wrap;html=1;" vertex="1" parent="1">
          <mxGeometry x="60" y="869" width="80" height="80" as="geometry" />
        </mxCell>
        <mxCell id="3lgUj6ZpfPvZA7XoHaoX-46" value="" style="edgeStyle=orthogonalEdgeStyle;rounded=0;orthogonalLoop=1;jettySize=auto;html=1;" edge="1" parent="1" source="3lgUj6ZpfPvZA7XoHaoX-47" target="3lgUj6ZpfPvZA7XoHaoX-49">
          <mxGeometry relative="1" as="geometry" />
        </mxCell>
        <mxCell id="3lgUj6ZpfPvZA7XoHaoX-47" value="True" style="text;html=1;strokeColor=none;fillColor=none;align=center;verticalAlign=middle;whiteSpace=wrap;rounded=0;" vertex="1" parent="1">
          <mxGeometry x="180" y="899" width="40" height="20" as="geometry" />
        </mxCell>
        <mxCell id="3lgUj6ZpfPvZA7XoHaoX-48" value="" style="edgeStyle=orthogonalEdgeStyle;rounded=0;orthogonalLoop=1;jettySize=auto;html=1;" edge="1" parent="1" source="3lgUj6ZpfPvZA7XoHaoX-49" target="3lgUj6ZpfPvZA7XoHaoX-50">
          <mxGeometry relative="1" as="geometry" />
        </mxCell>
        <mxCell id="3lgUj6ZpfPvZA7XoHaoX-49" value="Project Avg" style="whiteSpace=wrap;html=1;" vertex="1" parent="1">
          <mxGeometry x="260" y="884" width="90" height="50" as="geometry" />
        </mxCell>
        <mxCell id="3lgUj6ZpfPvZA7XoHaoX-76" style="edgeStyle=orthogonalEdgeStyle;rounded=0;orthogonalLoop=1;jettySize=auto;html=1;exitX=0.5;exitY=1;exitDx=0;exitDy=0;" edge="1" parent="1">
          <mxGeometry relative="1" as="geometry">
            <mxPoint x="430" y="935" as="sourcePoint" />
            <mxPoint x="430" y="946" as="targetPoint" />
          </mxGeometry>
        </mxCell>
        <mxCell id="3lgUj6ZpfPvZA7XoHaoX-50" value="Average" style="shape=process;whiteSpace=wrap;html=1;backgroundOutline=1;" vertex="1" parent="1">
          <mxGeometry x="380" y="889" width="100" height="40" as="geometry" />
        </mxCell>
        <mxCell id="3lgUj6ZpfPvZA7XoHaoX-51" style="edgeStyle=orthogonalEdgeStyle;rounded=0;orthogonalLoop=1;jettySize=auto;html=1;exitX=0.5;exitY=1;exitDx=0;exitDy=0;entryX=0.5;entryY=0;entryDx=0;entryDy=0;" edge="1" parent="1" source="3lgUj6ZpfPvZA7XoHaoX-52" target="3lgUj6ZpfPvZA7XoHaoX-45">
          <mxGeometry relative="1" as="geometry" />
        </mxCell>
        <mxCell id="3lgUj6ZpfPvZA7XoHaoX-52" value="False" style="text;html=1;strokeColor=none;fillColor=none;align=center;verticalAlign=middle;whiteSpace=wrap;rounded=0;" vertex="1" parent="1">
          <mxGeometry x="80" y="840" width="40" height="20" as="geometry" />
        </mxCell>
        <mxCell id="3lgUj6ZpfPvZA7XoHaoX-57" value="Counter &lt;br&gt;Increment" style="shape=parallelogram;perimeter=parallelogramPerimeter;whiteSpace=wrap;html=1;fixedSize=1;" vertex="1" parent="1">
          <mxGeometry x="45" y="980" width="110" height="60" as="geometry" />
        </mxCell>
        <mxCell id="3lgUj6ZpfPvZA7XoHaoX-62" value="" style="edgeStyle=orthogonalEdgeStyle;rounded=0;orthogonalLoop=1;jettySize=auto;html=1;" edge="1" parent="1" source="3lgUj6ZpfPvZA7XoHaoX-59" target="3lgUj6ZpfPvZA7XoHaoX-61">
          <mxGeometry relative="1" as="geometry" />
        </mxCell>
        <mxCell id="3lgUj6ZpfPvZA7XoHaoX-59" value="Current Grade" style="whiteSpace=wrap;html=1;" vertex="1" parent="1">
          <mxGeometry x="260" y="285" width="90" height="50" as="geometry" />
        </mxCell>
        <mxCell id="3lgUj6ZpfPvZA7XoHaoX-64" value="" style="edgeStyle=orthogonalEdgeStyle;rounded=0;orthogonalLoop=1;jettySize=auto;html=1;" edge="1" parent="1" source="3lgUj6ZpfPvZA7XoHaoX-61" target="3lgUj6ZpfPvZA7XoHaoX-63">
          <mxGeometry relative="1" as="geometry" />
        </mxCell>
        <mxCell id="3lgUj6ZpfPvZA7XoHaoX-61" value="Weighted Avg" style="shape=process;whiteSpace=wrap;html=1;backgroundOutline=1;" vertex="1" parent="1">
          <mxGeometry x="414" y="285" width="105" height="50" as="geometry" />
        </mxCell>
        <mxCell id="3lgUj6ZpfPvZA7XoHaoX-68" style="edgeStyle=orthogonalEdgeStyle;rounded=0;orthogonalLoop=1;jettySize=auto;html=1;exitX=0.5;exitY=1;exitDx=0;exitDy=0;entryX=0.5;entryY=0;entryDx=0;entryDy=0;" edge="1" parent="1" source="3lgUj6ZpfPvZA7XoHaoX-63" target="3lgUj6ZpfPvZA7XoHaoX-67">
          <mxGeometry relative="1" as="geometry" />
        </mxCell>
        <mxCell id="3lgUj6ZpfPvZA7XoHaoX-63" value="Output Avg" style="shape=process;whiteSpace=wrap;html=1;backgroundOutline=1;" vertex="1" parent="1">
          <mxGeometry x="414" y="360" width="105" height="50" as="geometry" />
        </mxCell>
        <mxCell id="3lgUj6ZpfPvZA7XoHaoX-67" value="END" style="ellipse;whiteSpace=wrap;html=1;" vertex="1" parent="1">
          <mxGeometry x="416.5" y="430" width="100" height="70" as="geometry" />
        </mxCell>
        <mxCell id="3lgUj6ZpfPvZA7XoHaoX-69" value="Return to counter inc." style="text;html=1;strokeColor=none;fillColor=none;align=center;verticalAlign=middle;whiteSpace=wrap;rounded=0;" vertex="1" parent="1">
          <mxGeometry x="383.5" y="580" width="93" height="20" as="geometry" />
        </mxCell>
        <mxCell id="3lgUj6ZpfPvZA7XoHaoX-70" value="Return to counter inc." style="text;html=1;strokeColor=none;fillColor=none;align=center;verticalAlign=middle;whiteSpace=wrap;rounded=0;" vertex="1" parent="1">
          <mxGeometry x="383.5" y="705" width="93" height="20" as="geometry" />
        </mxCell>
        <mxCell id="3lgUj6ZpfPvZA7XoHaoX-71" value="Return to counter inc." style="text;html=1;strokeColor=none;fillColor=none;align=center;verticalAlign=middle;whiteSpace=wrap;rounded=0;" vertex="1" parent="1">
          <mxGeometry x="383.5" y="820" width="93" height="20" as="geometry" />
        </mxCell>
        <mxCell id="3lgUj6ZpfPvZA7XoHaoX-72" value="Return to counter inc." style="text;html=1;strokeColor=none;fillColor=none;align=center;verticalAlign=middle;whiteSpace=wrap;rounded=0;" vertex="1" parent="1">
          <mxGeometry x="383.5" y="949" width="93" height="20" as="geometry" />
        </mxCell>
        <mxCell id="ONc8IG6XPWijFEw83tmm-1" value="&lt;h1&gt;Function&lt;/h1&gt;&lt;div&gt;Definition of function are on&amp;nbsp;&lt;/div&gt;&lt;div&gt;2nd page.&lt;/div&gt;" style="text;html=1;strokeColor=#666666;fillColor=#f5f5f5;spacing=5;spacingTop=-20;whiteSpace=wrap;overflow=hidden;rounded=1;glass=1;sketch=1;fontColor=#333333;shadow=0;opacity=30;" vertex="1" parent="1">
          <mxGeometry x="600" y="40" width="190" height="120" as="geometry" />
        </mxCell>
      </root>
    </mxGraphModel>
  </diagram>
  <diagram id="5G9li_ffYl7q7VNlXjR-" name="Page-2">
    <mxGraphModel dx="1038" dy="580" grid="1" gridSize="10" guides="1" tooltips="1" connect="1" arrows="1" fold="1" page="1" pageScale="1" pageWidth="827" pageHeight="1169" math="0" shadow="0">
      <root>
        <mxCell id="H3MWvXCP5hzWIqcwVup5-0" />
        <mxCell id="H3MWvXCP5hzWIqcwVup5-1" parent="H3MWvXCP5hzWIqcwVup5-0" />
        <mxCell id="H3MWvXCP5hzWIqcwVup5-4" value="" style="edgeStyle=orthogonalEdgeStyle;rounded=0;orthogonalLoop=1;jettySize=auto;html=1;" edge="1" parent="H3MWvXCP5hzWIqcwVup5-1" source="H3MWvXCP5hzWIqcwVup5-2" target="H3MWvXCP5hzWIqcwVup5-3">
          <mxGeometry relative="1" as="geometry" />
        </mxCell>
        <mxCell id="H3MWvXCP5hzWIqcwVup5-2" value="Print Prompt" style="shape=process;whiteSpace=wrap;html=1;backgroundOutline=1;" vertex="1" parent="H3MWvXCP5hzWIqcwVup5-1">
          <mxGeometry x="20" y="60" width="120" height="60" as="geometry" />
        </mxCell>
        <mxCell id="H3MWvXCP5hzWIqcwVup5-6" value="" style="edgeStyle=orthogonalEdgeStyle;rounded=0;orthogonalLoop=1;jettySize=auto;html=1;entryX=0;entryY=0.5;entryDx=0;entryDy=0;" edge="1" parent="H3MWvXCP5hzWIqcwVup5-1" source="H3MWvXCP5hzWIqcwVup5-3" target="H3MWvXCP5hzWIqcwVup5-39">
          <mxGeometry relative="1" as="geometry">
            <mxPoint x="140" y="180" as="targetPoint" />
          </mxGeometry>
        </mxCell>
        <mxCell id="H3MWvXCP5hzWIqcwVup5-8" style="edgeStyle=orthogonalEdgeStyle;rounded=0;orthogonalLoop=1;jettySize=auto;html=1;exitX=0.5;exitY=1;exitDx=0;exitDy=0;entryX=0.5;entryY=0;entryDx=0;entryDy=0;" edge="1" parent="H3MWvXCP5hzWIqcwVup5-1" source="H3MWvXCP5hzWIqcwVup5-3" target="H3MWvXCP5hzWIqcwVup5-7">
          <mxGeometry relative="1" as="geometry" />
        </mxCell>
        <mxCell id="H3MWvXCP5hzWIqcwVup5-3" value="Case 1" style="rhombus;whiteSpace=wrap;html=1;" vertex="1" parent="H3MWvXCP5hzWIqcwVup5-1">
          <mxGeometry x="40" y="140" width="80" height="80" as="geometry" />
        </mxCell>
        <mxCell id="H3MWvXCP5hzWIqcwVup5-10" value="" style="edgeStyle=orthogonalEdgeStyle;rounded=0;orthogonalLoop=1;jettySize=auto;html=1;" edge="1" parent="H3MWvXCP5hzWIqcwVup5-1" source="H3MWvXCP5hzWIqcwVup5-7" target="H3MWvXCP5hzWIqcwVup5-9">
          <mxGeometry relative="1" as="geometry" />
        </mxCell>
        <mxCell id="H3MWvXCP5hzWIqcwVup5-7" value="False" style="text;html=1;strokeColor=none;fillColor=none;align=center;verticalAlign=middle;whiteSpace=wrap;rounded=0;" vertex="1" parent="H3MWvXCP5hzWIqcwVup5-1">
          <mxGeometry x="60" y="240" width="40" height="20" as="geometry" />
        </mxCell>
        <mxCell id="H3MWvXCP5hzWIqcwVup5-12" value="" style="edgeStyle=orthogonalEdgeStyle;rounded=0;orthogonalLoop=1;jettySize=auto;html=1;entryX=0;entryY=0.5;entryDx=0;entryDy=0;" edge="1" parent="H3MWvXCP5hzWIqcwVup5-1" source="H3MWvXCP5hzWIqcwVup5-9" target="H3MWvXCP5hzWIqcwVup5-40">
          <mxGeometry relative="1" as="geometry">
            <mxPoint x="140" y="320" as="targetPoint" />
          </mxGeometry>
        </mxCell>
        <mxCell id="H3MWvXCP5hzWIqcwVup5-14" style="edgeStyle=orthogonalEdgeStyle;rounded=0;orthogonalLoop=1;jettySize=auto;html=1;exitX=0.5;exitY=1;exitDx=0;exitDy=0;entryX=0.5;entryY=0;entryDx=0;entryDy=0;" edge="1" parent="H3MWvXCP5hzWIqcwVup5-1" source="H3MWvXCP5hzWIqcwVup5-9" target="H3MWvXCP5hzWIqcwVup5-13">
          <mxGeometry relative="1" as="geometry" />
        </mxCell>
        <mxCell id="H3MWvXCP5hzWIqcwVup5-9" value="Case 2" style="rhombus;whiteSpace=wrap;html=1;" vertex="1" parent="H3MWvXCP5hzWIqcwVup5-1">
          <mxGeometry x="40" y="280" width="80" height="80" as="geometry" />
        </mxCell>
        <mxCell id="H3MWvXCP5hzWIqcwVup5-16" value="" style="edgeStyle=orthogonalEdgeStyle;rounded=0;orthogonalLoop=1;jettySize=auto;html=1;" edge="1" parent="H3MWvXCP5hzWIqcwVup5-1" source="H3MWvXCP5hzWIqcwVup5-13" target="H3MWvXCP5hzWIqcwVup5-15">
          <mxGeometry relative="1" as="geometry" />
        </mxCell>
        <mxCell id="H3MWvXCP5hzWIqcwVup5-13" value="False" style="text;html=1;strokeColor=none;fillColor=none;align=center;verticalAlign=middle;whiteSpace=wrap;rounded=0;" vertex="1" parent="H3MWvXCP5hzWIqcwVup5-1">
          <mxGeometry x="60" y="380" width="40" height="20" as="geometry" />
        </mxCell>
        <mxCell id="H3MWvXCP5hzWIqcwVup5-18" value="" style="edgeStyle=orthogonalEdgeStyle;rounded=0;orthogonalLoop=1;jettySize=auto;html=1;" edge="1" parent="H3MWvXCP5hzWIqcwVup5-1" source="H3MWvXCP5hzWIqcwVup5-15" target="H3MWvXCP5hzWIqcwVup5-41">
          <mxGeometry relative="1" as="geometry">
            <mxPoint x="140" y="460" as="targetPoint" />
          </mxGeometry>
        </mxCell>
        <mxCell id="H3MWvXCP5hzWIqcwVup5-22" style="edgeStyle=orthogonalEdgeStyle;rounded=0;orthogonalLoop=1;jettySize=auto;html=1;exitX=0.5;exitY=1;exitDx=0;exitDy=0;entryX=0.5;entryY=0;entryDx=0;entryDy=0;" edge="1" parent="H3MWvXCP5hzWIqcwVup5-1" source="H3MWvXCP5hzWIqcwVup5-15" target="H3MWvXCP5hzWIqcwVup5-21">
          <mxGeometry relative="1" as="geometry" />
        </mxCell>
        <mxCell id="H3MWvXCP5hzWIqcwVup5-15" value="Case 3" style="rhombus;whiteSpace=wrap;html=1;" vertex="1" parent="H3MWvXCP5hzWIqcwVup5-1">
          <mxGeometry x="40" y="420" width="80" height="80" as="geometry" />
        </mxCell>
        <mxCell id="H3MWvXCP5hzWIqcwVup5-24" value="" style="edgeStyle=orthogonalEdgeStyle;rounded=0;orthogonalLoop=1;jettySize=auto;html=1;" edge="1" parent="H3MWvXCP5hzWIqcwVup5-1" source="H3MWvXCP5hzWIqcwVup5-21" target="H3MWvXCP5hzWIqcwVup5-23">
          <mxGeometry relative="1" as="geometry" />
        </mxCell>
        <mxCell id="H3MWvXCP5hzWIqcwVup5-21" value="False" style="text;html=1;strokeColor=none;fillColor=none;align=center;verticalAlign=middle;whiteSpace=wrap;rounded=0;" vertex="1" parent="H3MWvXCP5hzWIqcwVup5-1">
          <mxGeometry x="60" y="520" width="40" height="20" as="geometry" />
        </mxCell>
        <mxCell id="H3MWvXCP5hzWIqcwVup5-26" value="" style="edgeStyle=orthogonalEdgeStyle;rounded=0;orthogonalLoop=1;jettySize=auto;html=1;entryX=0;entryY=0.5;entryDx=0;entryDy=0;" edge="1" parent="H3MWvXCP5hzWIqcwVup5-1" source="H3MWvXCP5hzWIqcwVup5-23" target="H3MWvXCP5hzWIqcwVup5-42">
          <mxGeometry relative="1" as="geometry">
            <mxPoint x="140" y="600" as="targetPoint" />
          </mxGeometry>
        </mxCell>
        <mxCell id="H3MWvXCP5hzWIqcwVup5-23" value="Case 4" style="rhombus;whiteSpace=wrap;html=1;" vertex="1" parent="H3MWvXCP5hzWIqcwVup5-1">
          <mxGeometry x="40" y="560" width="80" height="80" as="geometry" />
        </mxCell>
        <mxCell id="H3MWvXCP5hzWIqcwVup5-29" value="" style="edgeStyle=orthogonalEdgeStyle;rounded=0;orthogonalLoop=1;jettySize=auto;html=1;" edge="1" parent="H3MWvXCP5hzWIqcwVup5-1" source="H3MWvXCP5hzWIqcwVup5-27" target="H3MWvXCP5hzWIqcwVup5-28">
          <mxGeometry relative="1" as="geometry" />
        </mxCell>
        <mxCell id="H3MWvXCP5hzWIqcwVup5-27" value="Average" style="shape=process;whiteSpace=wrap;html=1;backgroundOutline=1;" vertex="1" parent="H3MWvXCP5hzWIqcwVup5-1">
          <mxGeometry x="310" y="60" width="120" height="60" as="geometry" />
        </mxCell>
        <mxCell id="H3MWvXCP5hzWIqcwVup5-31" value="" style="edgeStyle=orthogonalEdgeStyle;rounded=0;orthogonalLoop=1;jettySize=auto;html=1;" edge="1" parent="H3MWvXCP5hzWIqcwVup5-1" source="H3MWvXCP5hzWIqcwVup5-28" target="H3MWvXCP5hzWIqcwVup5-30">
          <mxGeometry relative="1" as="geometry" />
        </mxCell>
        <mxCell id="H3MWvXCP5hzWIqcwVup5-28" value="Input != -1" style="rhombus;whiteSpace=wrap;html=1;" vertex="1" parent="H3MWvXCP5hzWIqcwVup5-1">
          <mxGeometry x="330" y="160" width="80" height="80" as="geometry" />
        </mxCell>
        <mxCell id="H3MWvXCP5hzWIqcwVup5-33" value="" style="edgeStyle=orthogonalEdgeStyle;rounded=0;orthogonalLoop=1;jettySize=auto;html=1;" edge="1" parent="H3MWvXCP5hzWIqcwVup5-1" source="H3MWvXCP5hzWIqcwVup5-30" target="H3MWvXCP5hzWIqcwVup5-32">
          <mxGeometry relative="1" as="geometry" />
        </mxCell>
        <mxCell id="H3MWvXCP5hzWIqcwVup5-30" value="Input" style="shape=parallelogram;perimeter=parallelogramPerimeter;whiteSpace=wrap;html=1;fixedSize=1;" vertex="1" parent="H3MWvXCP5hzWIqcwVup5-1">
          <mxGeometry x="310" y="260" width="120" height="60" as="geometry" />
        </mxCell>
        <mxCell id="H3MWvXCP5hzWIqcwVup5-34" style="edgeStyle=orthogonalEdgeStyle;rounded=0;orthogonalLoop=1;jettySize=auto;html=1;exitX=0.5;exitY=1;exitDx=0;exitDy=0;entryX=1;entryY=0.5;entryDx=0;entryDy=0;" edge="1" parent="H3MWvXCP5hzWIqcwVup5-1">
          <mxGeometry relative="1" as="geometry">
            <mxPoint x="370" y="410" as="sourcePoint" />
            <mxPoint x="410" y="200" as="targetPoint" />
            <Array as="points">
              <mxPoint x="370" y="443" />
              <mxPoint x="480" y="443" />
              <mxPoint x="480" y="200" />
            </Array>
          </mxGeometry>
        </mxCell>
        <mxCell id="H3MWvXCP5hzWIqcwVup5-32" value="Sum += Input" style="whiteSpace=wrap;html=1;" vertex="1" parent="H3MWvXCP5hzWIqcwVup5-1">
          <mxGeometry x="310" y="350" width="120" height="60" as="geometry" />
        </mxCell>
        <mxCell id="H3MWvXCP5hzWIqcwVup5-37" value="" style="edgeStyle=orthogonalEdgeStyle;rounded=0;orthogonalLoop=1;jettySize=auto;html=1;" edge="1" parent="H3MWvXCP5hzWIqcwVup5-1" source="H3MWvXCP5hzWIqcwVup5-35" target="H3MWvXCP5hzWIqcwVup5-36">
          <mxGeometry relative="1" as="geometry" />
        </mxCell>
        <mxCell id="H3MWvXCP5hzWIqcwVup5-35" value="Weighted Average" style="shape=process;whiteSpace=wrap;html=1;backgroundOutline=1;" vertex="1" parent="H3MWvXCP5hzWIqcwVup5-1">
          <mxGeometry x="510" y="60" width="120" height="60" as="geometry" />
        </mxCell>
        <mxCell id="H3MWvXCP5hzWIqcwVup5-44" value="" style="edgeStyle=orthogonalEdgeStyle;rounded=0;orthogonalLoop=1;jettySize=auto;html=1;" edge="1" parent="H3MWvXCP5hzWIqcwVup5-1" source="H3MWvXCP5hzWIqcwVup5-36" target="H3MWvXCP5hzWIqcwVup5-43">
          <mxGeometry relative="1" as="geometry" />
        </mxCell>
        <mxCell id="H3MWvXCP5hzWIqcwVup5-36" value="Sum = param1 + param2 + param3 + param4" style="whiteSpace=wrap;html=1;" vertex="1" parent="H3MWvXCP5hzWIqcwVup5-1">
          <mxGeometry x="510" y="160" width="120" height="60" as="geometry" />
        </mxCell>
        <mxCell id="H3MWvXCP5hzWIqcwVup5-39" value="Print Statement 1" style="shape=parallelogram;perimeter=parallelogramPerimeter;whiteSpace=wrap;html=1;fixedSize=1;" vertex="1" parent="H3MWvXCP5hzWIqcwVup5-1">
          <mxGeometry x="160" y="150" width="120" height="60" as="geometry" />
        </mxCell>
        <mxCell id="H3MWvXCP5hzWIqcwVup5-40" value="Print Statement 2" style="shape=parallelogram;perimeter=parallelogramPerimeter;whiteSpace=wrap;html=1;fixedSize=1;" vertex="1" parent="H3MWvXCP5hzWIqcwVup5-1">
          <mxGeometry x="160" y="290" width="120" height="60" as="geometry" />
        </mxCell>
        <mxCell id="H3MWvXCP5hzWIqcwVup5-41" value="Print Statement 3" style="shape=parallelogram;perimeter=parallelogramPerimeter;whiteSpace=wrap;html=1;fixedSize=1;" vertex="1" parent="H3MWvXCP5hzWIqcwVup5-1">
          <mxGeometry x="160" y="430" width="120" height="60" as="geometry" />
        </mxCell>
        <mxCell id="H3MWvXCP5hzWIqcwVup5-42" value="Print Statement 4" style="shape=parallelogram;perimeter=parallelogramPerimeter;whiteSpace=wrap;html=1;fixedSize=1;" vertex="1" parent="H3MWvXCP5hzWIqcwVup5-1">
          <mxGeometry x="160" y="570" width="120" height="60" as="geometry" />
        </mxCell>
        <mxCell id="H3MWvXCP5hzWIqcwVup5-43" value="grade = (Sum/80) * 100" style="whiteSpace=wrap;html=1;" vertex="1" parent="H3MWvXCP5hzWIqcwVup5-1">
          <mxGeometry x="510" y="260" width="120" height="60" as="geometry" />
        </mxCell>
        <mxCell id="H3MWvXCP5hzWIqcwVup5-47" value="" style="edgeStyle=orthogonalEdgeStyle;rounded=0;orthogonalLoop=1;jettySize=auto;html=1;" edge="1" parent="H3MWvXCP5hzWIqcwVup5-1" source="H3MWvXCP5hzWIqcwVup5-45" target="H3MWvXCP5hzWIqcwVup5-46">
          <mxGeometry relative="1" as="geometry" />
        </mxCell>
        <mxCell id="H3MWvXCP5hzWIqcwVup5-45" value="Output Average" style="shape=process;whiteSpace=wrap;html=1;backgroundOutline=1;" vertex="1" parent="H3MWvXCP5hzWIqcwVup5-1">
          <mxGeometry x="480" y="555" width="120" height="60" as="geometry" />
        </mxCell>
        <mxCell id="H3MWvXCP5hzWIqcwVup5-54" style="edgeStyle=orthogonalEdgeStyle;rounded=0;orthogonalLoop=1;jettySize=auto;html=1;exitX=0.5;exitY=1;exitDx=0;exitDy=0;entryX=0.5;entryY=0;entryDx=0;entryDy=0;" edge="1" parent="H3MWvXCP5hzWIqcwVup5-1" source="H3MWvXCP5hzWIqcwVup5-46" target="H3MWvXCP5hzWIqcwVup5-48">
          <mxGeometry relative="1" as="geometry" />
        </mxCell>
        <mxCell id="H3MWvXCP5hzWIqcwVup5-46" value="Print&lt;br&gt;Quiz Average" style="shape=parallelogram;perimeter=parallelogramPerimeter;whiteSpace=wrap;html=1;fixedSize=1;" vertex="1" parent="H3MWvXCP5hzWIqcwVup5-1">
          <mxGeometry x="480" y="640" width="120" height="60" as="geometry" />
        </mxCell>
        <mxCell id="H3MWvXCP5hzWIqcwVup5-55" style="edgeStyle=orthogonalEdgeStyle;rounded=0;orthogonalLoop=1;jettySize=auto;html=1;exitX=0.5;exitY=1;exitDx=0;exitDy=0;entryX=0.5;entryY=0;entryDx=0;entryDy=0;" edge="1" parent="H3MWvXCP5hzWIqcwVup5-1" source="H3MWvXCP5hzWIqcwVup5-48" target="H3MWvXCP5hzWIqcwVup5-49">
          <mxGeometry relative="1" as="geometry" />
        </mxCell>
        <mxCell id="H3MWvXCP5hzWIqcwVup5-48" value="Print&lt;br&gt;Assign. Average" style="shape=parallelogram;perimeter=parallelogramPerimeter;whiteSpace=wrap;html=1;fixedSize=1;" vertex="1" parent="H3MWvXCP5hzWIqcwVup5-1">
          <mxGeometry x="480" y="720" width="120" height="60" as="geometry" />
        </mxCell>
        <mxCell id="H3MWvXCP5hzWIqcwVup5-56" style="edgeStyle=orthogonalEdgeStyle;rounded=0;orthogonalLoop=1;jettySize=auto;html=1;exitX=0.5;exitY=1;exitDx=0;exitDy=0;" edge="1" parent="H3MWvXCP5hzWIqcwVup5-1" source="H3MWvXCP5hzWIqcwVup5-49" target="H3MWvXCP5hzWIqcwVup5-50">
          <mxGeometry relative="1" as="geometry" />
        </mxCell>
        <mxCell id="H3MWvXCP5hzWIqcwVup5-49" value="Print&lt;br&gt;Exam Average" style="shape=parallelogram;perimeter=parallelogramPerimeter;whiteSpace=wrap;html=1;fixedSize=1;" vertex="1" parent="H3MWvXCP5hzWIqcwVup5-1">
          <mxGeometry x="480" y="800" width="120" height="60" as="geometry" />
        </mxCell>
        <mxCell id="H3MWvXCP5hzWIqcwVup5-57" style="edgeStyle=orthogonalEdgeStyle;rounded=0;orthogonalLoop=1;jettySize=auto;html=1;exitX=0.5;exitY=1;exitDx=0;exitDy=0;entryX=0.5;entryY=0;entryDx=0;entryDy=0;" edge="1" parent="H3MWvXCP5hzWIqcwVup5-1" source="H3MWvXCP5hzWIqcwVup5-50" target="H3MWvXCP5hzWIqcwVup5-51">
          <mxGeometry relative="1" as="geometry" />
        </mxCell>
        <mxCell id="H3MWvXCP5hzWIqcwVup5-50" value="Print &lt;br&gt;Project Average" style="shape=parallelogram;perimeter=parallelogramPerimeter;whiteSpace=wrap;html=1;fixedSize=1;" vertex="1" parent="H3MWvXCP5hzWIqcwVup5-1">
          <mxGeometry x="480" y="880" width="120" height="60" as="geometry" />
        </mxCell>
        <mxCell id="H3MWvXCP5hzWIqcwVup5-51" value="Print &lt;br&gt;Current Grade" style="shape=parallelogram;perimeter=parallelogramPerimeter;whiteSpace=wrap;html=1;fixedSize=1;" vertex="1" parent="H3MWvXCP5hzWIqcwVup5-1">
          <mxGeometry x="480" y="960" width="120" height="60" as="geometry" />
        </mxCell>
      </root>
    </mxGraphModel>
  </diagram>
</mxfile>
